<svg id="visual" viewBox="0 0 900 600" width="900" height="600" xmlns="http://www.w3.org/2000/svg" xmlns:xlink="http://www.w3.org/1999/xlink" version="1.1"><rect x="0" y="0" width="900" height="600" fill="#ffffff"></rect><g transform="translate(-76.75338728047964 595.7874178768756)"><path d="M205.3 -259.7C301.3 -164.1 438.7 -132.8 460.8 -71.8C482.8 -10.7 389.5 80.1 328 191.8C266.4 303.5 236.7 436 155.4 495.2C74.1 554.4 -58.7 540.3 -117.6 459.6C-176.4 378.9 -161.3 231.7 -192.2 132.9C-223.2 34.1 -300.2 -16.2 -309.6 -70.5C-318.9 -124.8 -260.7 -183 -197.8 -284.5C-135 -385.9 -67.5 -530.4 -6.4 -522.8C54.6 -515.1 109.3 -355.2 205.3 -259.7" fill="#3f3d56"></path></g></svg>