<?xml version="1.0" encoding="UTF-8" standalone="no"?>
<svg
   id="visual"
   viewBox="0 0 1980 1024"
   width="1980"
   height="1024"
   version="1.1"
   sodipodi:docname="blob-haikei12.svg"
   inkscape:version="1.1.2 (b8e25be833, 2022-02-05)"
   xmlns:inkscape="http://www.inkscape.org/namespaces/inkscape"
   xmlns:sodipodi="http://sodipodi.sourceforge.net/DTD/sodipodi-0.dtd"
   xmlns="http://www.w3.org/2000/svg"
   xmlns:svg="http://www.w3.org/2000/svg">
  <defs
     id="defs11" />
  <sodipodi:namedview
     id="namedview9"
     pagecolor="#505050"
     bordercolor="#eeeeee"
     borderopacity="1"
     inkscape:pageshadow="0"
     inkscape:pageopacity="0"
     inkscape:pagecheckerboard="0"
     showgrid="false"
     inkscape:zoom="0.40497934"
     inkscape:cx="984.00082"
     inkscape:cy="629.66175"
     inkscape:window-width="1920"
     inkscape:window-height="1017"
     inkscape:window-x="-8"
     inkscape:window-y="-8"
     inkscape:window-maximized="1"
     inkscape:current-layer="visual" />
  <rect
     x="0"
     y="0"
     width="1980"
     height="1024"
     fill="#ffffff"
     id="rect2" />
  <g
     transform="matrix(1.3615126,0,0,0.50356789,458.89562,999.43302)"
     id="g6">
    <path
       d="m 464.6,-846.9 c 162,135.7 350.82255,-308.9745 509.82255,-177.9745 C 1133.4225,-893.7745 1262.6,-187 1226.2,-21 1189.8,145 971.6,290 791.5,384.4 611.3,478.8 469.1,522.6 343.6,538.1 218,553.6 109,540.8 -29.3,591.6 c -138.4,50.8 -306,165.2 -471.9,173 -165.8,7.7 -329.8,-91.2 -477,-236.4 -147.2,-145.2 -277.5,-336.7 -269,-523.3 8.5,-186.6 155.9,-368.2 282.8,-548.5 126.9,-180.3 293.24935,37.98617 450.54935,-100.31383 157.4,-138.3 321.9732,-731.35687 501.773199,-682.15687 C 167.62255,-1276.8707 302.7,-982.6 464.6,-846.9"
       fill="#3f3d56"
       id="path4"
       sodipodi:nodetypes="ccsccccsssccc" />
  </g>
</svg>
