<?xml version="1.0" encoding="UTF-8" standalone="no"?>
<svg
   id="visual"
   viewBox="0 0 1980 1024"
   width="1980"
   height="1024"
   version="1.1"
   sodipodi:docname="blob-haikei13.svg"
   inkscape:version="1.1.2 (b8e25be833, 2022-02-05)"
   xmlns:inkscape="http://www.inkscape.org/namespaces/inkscape"
   xmlns:sodipodi="http://sodipodi.sourceforge.net/DTD/sodipodi-0.dtd"
   xmlns="http://www.w3.org/2000/svg"
   xmlns:svg="http://www.w3.org/2000/svg">
  <defs
     id="defs11" />
  <sodipodi:namedview
     id="namedview9"
     pagecolor="#505050"
     bordercolor="#eeeeee"
     borderopacity="1"
     inkscape:pageshadow="0"
     inkscape:pageopacity="0"
     inkscape:pagecheckerboard="0"
     showgrid="false"
     inkscape:zoom="0.5"
     inkscape:cx="1013.7826"
     inkscape:cy="538.52936"
     inkscape:window-width="1920"
     inkscape:window-height="1017"
     inkscape:window-x="-8"
     inkscape:window-y="-8"
     inkscape:window-maximized="1"
     inkscape:current-layer="visual" />
  <rect
     x="0"
     y="0"
     width="1980"
     height="1024"
     fill="#ffffff"
     id="rect2" />
  <g
     transform="matrix(1.3615126,0,0,0.50356789,458.89562,999.43302)"
     id="g6">
    <path
       d="m 1132.4739,-2068.0963 c 214.5543,1447.15523 206.139,1994.223817 144.9867,2126.86619 -71.0642,154.14182 -264.9154,-122.092744 -380.60467,-235.0425 -145.84399,-142.39037 -284.13001,-256.70894 -431.2497,-254.06641 -160.65222,2.8856 -317.16864,41.26356 -455.6754643,157.984 C -125.7569,-158.0103 -274.06259,-27.77831 -341.50528,47.389753 c 0,-1085.089553 2.32861,-1788.225753 2.32861,-2040.992053 0,0 125.30033,5.2571 248.599812,6.0246"
       fill="#3f3d56"
       id="path4"
       sodipodi:nodetypes="csssscsc" />
  </g>
  <circle
     style="fill:#ffffff;fill-rule:evenodd;stroke:#3f3d56;stroke-width:2.9;fill-opacity:1"
     id="path3263"
     cx="134.6351"
     cy="230.0576"
     r="7.1320243" />
  <circle
     style="fill:#ffffff;fill-opacity:1;fill-rule:evenodd;stroke:#3f3d56;stroke-width:2.9"
     id="path3263-4"
     cx="148.32854"
     cy="388.73502"
     r="7.1320243" />
  <circle
     style="fill:#ffffff;fill-opacity:1;fill-rule:evenodd;stroke:#3f3d56;stroke-width:2.9"
     id="path3263-5"
     cx="242.41202"
     cy="341.18985"
     r="7.1320243" />
  <circle
     style="fill:#ffffff;fill-opacity:1;fill-rule:evenodd;stroke:#3f3d56;stroke-width:2.9"
     id="path3263-45"
     cx="292.49457"
     cy="211.76839"
     r="7.1320243" />
  <circle
     style="fill:#ffffff;fill-opacity:1;fill-rule:evenodd;stroke:#3f3d56;stroke-width:2.9"
     id="path3263-44"
     cx="349.70212"
     cy="524.06653"
     r="7.1320243" />
  <circle
     style="fill:#ffffff;fill-opacity:1;fill-rule:evenodd;stroke:#3f3d56;stroke-width:2.9"
     id="path3263-57"
     cx="156.3493"
     cy="631.40137"
     r="7.1320243" />
  <circle
     style="fill:#ffffff;fill-opacity:1;fill-rule:evenodd;stroke:#3f3d56;stroke-width:2.9"
     id="path3263-1"
     cx="406.97009"
     cy="441.75769"
     r="7.1320243" />
  <circle
     style="fill:#ffffff;fill-opacity:1;fill-rule:evenodd;stroke:#3f3d56;stroke-width:2.9"
     id="path3263-7"
     cx="447.99362"
     cy="644.12396"
     r="7.1320243" />
  <circle
     style="fill:#ffffff;fill-opacity:1;fill-rule:evenodd;stroke:#3f3d56;stroke-width:2.9"
     id="path3263-46"
     cx="560.1123"
     cy="322.37228"
     r="7.1320243" />
  <circle
     style="fill:#ffffff;fill-opacity:1;fill-rule:evenodd;stroke:#3f3d56;stroke-width:2.9"
     id="path3263-2"
     cx="428.96722"
     cy="277.53525"
     r="7.1320243" />
  <circle
     style="fill:#ffffff;fill-opacity:1;fill-rule:evenodd;stroke:#3f3d56;stroke-width:2.9"
     id="path3263-0"
     cx="550.79974"
     cy="594.79547"
     r="7.1320243" />
  <circle
     style="fill:#ffffff;fill-opacity:1;fill-rule:evenodd;stroke:#3f3d56;stroke-width:2.9"
     id="path3263-3"
     cx="490.03302"
     cy="266.7981"
     r="7.1320243" />
  <circle
     style="fill:#ffffff;fill-opacity:1;fill-rule:evenodd;stroke:#3f3d56;stroke-width:2.9"
     id="path3263-466"
     cx="287.04767"
     cy="162.90231"
     r="7.1320243" />
  <circle
     style="fill:#ffffff;fill-opacity:1;fill-rule:evenodd;stroke:#3f3d56;stroke-width:2.9"
     id="path3263-74"
     cx="210.6481"
     cy="262.75339"
     r="7.1320243" />
  <circle
     style="fill:#ffffff;fill-opacity:1;fill-rule:evenodd;stroke:#3f3d56;stroke-width:2.9"
     id="path3263-6"
     cx="296.45645"
     cy="321.75247"
     r="7.1320243" />
  <circle
     style="fill:#ffffff;fill-opacity:1;fill-rule:evenodd;stroke:#3f3d56;stroke-width:2.9"
     id="path3263-462"
     cx="209.72997"
     cy="456.5686"
     r="7.1320243" />
  <circle
     style="fill:#ffffff;fill-opacity:1;fill-rule:evenodd;stroke:#3f3d56;stroke-width:2.9"
     id="path3263-32"
     cx="131.46504"
     cy="528.49084"
     r="7.1320243" />
  <circle
     style="fill:#ffffff;fill-opacity:1;fill-rule:evenodd;stroke:#3f3d56;stroke-width:2.9"
     id="path3263-17"
     cx="94.157295"
     cy="378.49014"
     r="7.1320243" />
  <circle
     style="fill:#ffffff;fill-opacity:1;fill-rule:evenodd;stroke:#3f3d56;stroke-width:2.9"
     id="path3263-09"
     cx="555.65741"
     cy="505.72632"
     r="7.1320243" />
  <circle
     style="fill:#ffffff;fill-opacity:1;fill-rule:evenodd;stroke:#3f3d56;stroke-width:2.9"
     id="path3263-8"
     cx="1629.927"
     cy="611.13843"
     r="7.1320243" />
  <circle
     style="fill:#ffffff;fill-opacity:1;fill-rule:evenodd;stroke:#3f3d56;stroke-width:2.9"
     id="path3263-29"
     cx="1661.3553"
     cy="611.00421"
     r="7.1320243" />
  <circle
     style="fill:#ffffff;fill-opacity:1;fill-rule:evenodd;stroke:#3f3d56;stroke-width:2.9"
     id="path3263-9"
     cx="1726.465"
     cy="729.45728"
     r="7.1320243" />
  <circle
     style="fill:#ffffff;fill-opacity:1;fill-rule:evenodd;stroke:#3f3d56;stroke-width:2.9"
     id="path3263-43"
     cx="1839.076"
     cy="522.94263"
     r="7.1320243" />
  <circle
     style="fill:#ffffff;fill-opacity:1;fill-rule:evenodd;stroke:#3f3d56;stroke-width:2.9"
     id="path3263-749"
     cx="1772.444"
     cy="456.87744"
     r="7.1320243" />
  <circle
     style="fill:#ffffff;fill-opacity:1;fill-rule:evenodd;stroke:#3f3d56;stroke-width:2.9"
     id="path3263-34"
     cx="1671.2347"
     cy="471.27817"
     r="7.1320243" />
  <circle
     style="fill:#ffffff;fill-opacity:1;fill-rule:evenodd;stroke:#3f3d56;stroke-width:2.9"
     id="path3263-63"
     cx="1637.3892"
     cy="314.27844"
     r="7.1320243" />
  <circle
     style="fill:#ffffff;fill-opacity:1;fill-rule:evenodd;stroke:#3f3d56;stroke-width:2.9"
     id="path3263-27"
     cx="1809.8867"
     cy="229.73131"
     r="7.1320243" />
  <circle
     style="fill:#ffffff;fill-opacity:1;fill-rule:evenodd;stroke:#3f3d56;stroke-width:2.9"
     id="path3263-92"
     cx="1917.1321"
     cy="402.13193"
     r="7.1320243" />
  <circle
     style="fill:#ffffff;fill-opacity:1;fill-rule:evenodd;stroke:#3f3d56;stroke-width:2.9"
     id="path3263-05"
     cx="1939.0687"
     cy="632.51654"
     r="7.1320243" />
  <circle
     style="fill:#ffffff;fill-opacity:1;fill-rule:evenodd;stroke:#3f3d56;stroke-width:2.9"
     id="path3263-98"
     cx="1857.103"
     cy="655.56525"
     r="7.1320243" />
  <circle
     style="fill:#ffffff;fill-opacity:1;fill-rule:evenodd;stroke:#3f3d56;stroke-width:2.9"
     id="path3263-30"
     cx="1743.4926"
     cy="628.11377"
     r="7.1320243" />
  <circle
     style="fill:#ffffff;fill-opacity:1;fill-rule:evenodd;stroke:#3f3d56;stroke-width:2.9"
     id="path3263-77"
     cx="1742.5968"
     cy="827.16705"
     r="7.1320243" />
  <circle
     style="fill:#ffffff;fill-opacity:1;fill-rule:evenodd;stroke:#3f3d56;stroke-width:2.9"
     id="path3263-19"
     cx="1615.0333"
     cy="803.26727"
     r="7.1320243" />
  <circle
     style="fill:#ffffff;fill-opacity:1;fill-rule:evenodd;stroke:#3f3d56;stroke-width:2.9"
     id="path3263-41"
     cx="1462.66"
     cy="693.91718"
     r="7.1320243" />
  <circle
     style="fill:#ffffff;fill-opacity:1;fill-rule:evenodd;stroke:#3f3d56;stroke-width:2.9"
     id="path3263-41-0"
     cx="1386.8431"
     cy="579.98804"
     r="7.1320243" />
  <circle
     style="fill:#ffffff;fill-opacity:1;fill-rule:evenodd;stroke:#3f3d56;stroke-width:2.9"
     id="path3263-41-5"
     cx="1386.6923"
     cy="475.98813"
     r="7.1320243" />
  <circle
     style="fill:#ffffff;fill-opacity:1;fill-rule:evenodd;stroke:#3f3d56;stroke-width:2.9"
     id="path3263-41-3"
     cx="1338.4369"
     cy="300.05795"
     r="7.1320243" />
  <circle
     style="fill:#ffffff;fill-opacity:1;fill-rule:evenodd;stroke:#3f3d56;stroke-width:2.9"
     id="path3263-41-6"
     cx="1280.2628"
     cy="180.14226"
     r="7.1320243" />
  <circle
     style="fill:#ffffff;fill-opacity:1;fill-rule:evenodd;stroke:#3f3d56;stroke-width:2.9"
     id="path3263-41-03"
     cx="698.19952"
     cy="136.98691"
     r="7.1320243" />
  <circle
     style="fill:#ffffff;fill-opacity:1;fill-rule:evenodd;stroke:#3f3d56;stroke-width:2.9"
     id="path3263-41-8"
     cx="476.19687"
     cy="135.30908"
     r="7.1320243" />
  <circle
     style="fill:#ffffff;fill-opacity:1;fill-rule:evenodd;stroke:#3f3d56;stroke-width:2.9"
     id="path3263-41-1"
     cx="588.21124"
     cy="145.14653"
     r="7.1320243" />
  <circle
     style="fill:#ffffff;fill-opacity:1;fill-rule:evenodd;stroke:#3f3d56;stroke-width:2.9"
     id="path3263-41-9"
     cx="1308.1554"
     cy="106.10171"
     r="7.1320243" />
  <circle
     style="fill:#ffffff;fill-opacity:1;fill-rule:evenodd;stroke:#3f3d56;stroke-width:2.9"
     id="path3263-929"
     cx="1466.9956"
     cy="482.62689"
     r="7.1320243" />
  <circle
     style="fill:#ffffff;fill-opacity:1;fill-rule:evenodd;stroke:#3f3d56;stroke-width:2.9"
     id="path3263-464"
     cx="1393.208"
     cy="376.43317"
     r="7.1320243" />
  <circle
     style="fill:#ffffff;fill-opacity:1;fill-rule:evenodd;stroke:#3f3d56;stroke-width:2.9"
     id="path3263-985"
     cx="1472.8087"
     cy="208.47256"
     r="7.1320243" />
  <circle
     style="fill:#ffffff;fill-opacity:1;fill-rule:evenodd;stroke:#3f3d56;stroke-width:2.9"
     id="path3263-06"
     cx="1643.6423"
     cy="143.13907"
     r="7.1320243" />
  <circle
     style="fill:#ffffff;fill-opacity:1;fill-rule:evenodd;stroke:#3f3d56;stroke-width:2.9"
     id="path3263-62"
     cx="1737.7928"
     cy="111.30803"
     r="7.1320243" />
  <circle
     style="fill:#ffffff;fill-opacity:1;fill-rule:evenodd;stroke:#3f3d56;stroke-width:2.9"
     id="path3263-88"
     cx="1771.989"
     cy="350.37048"
     r="7.1320243" />
  <circle
     style="fill:#ffffff;fill-opacity:1;fill-rule:evenodd;stroke:#3f3d56;stroke-width:2.9"
     id="path3263-83"
     cx="1711.2141"
     cy="429.20224"
     r="7.1320243" />
  <circle
     style="fill:#ffffff;fill-opacity:1;fill-rule:evenodd;stroke:#3f3d56;stroke-width:2.9"
     id="path3263-89"
     cx="376.95145"
     cy="771.88892"
     r="7.1320243" />
  <circle
     style="fill:#ffffff;fill-opacity:1;fill-rule:evenodd;stroke:#3f3d56;stroke-width:2.9"
     id="path3263-87"
     cx="176.24165"
     cy="791.95282"
     r="7.1320243" />
  <circle
     style="fill:#ffffff;fill-opacity:1;fill-rule:evenodd;stroke:#3f3d56;stroke-width:2.9"
     id="path3263-85"
     cx="28.255432"
     cy="892.10968"
     r="7.1320243" />
  <circle
     style="fill:#ffffff;fill-opacity:1;fill-rule:evenodd;stroke:#3f3d56;stroke-width:2.9"
     id="path3263-981"
     cx="209.84854"
     cy="893.08002"
     r="7.1320243" />
  <circle
     style="fill:#ffffff;fill-opacity:1;fill-rule:evenodd;stroke:#3f3d56;stroke-width:2.9"
     id="path3263-927"
     cx="294.65747"
     cy="718.11298"
     r="7.1320243" />
  <circle
     style="fill:#ffffff;fill-opacity:1;fill-rule:evenodd;stroke:#3f3d56;stroke-width:2.9"
     id="path3263-20"
     cx="121.86158"
     cy="732.81946"
     r="7.1320243" />
  <circle
     style="fill:#ffffff;fill-opacity:1;fill-rule:evenodd;stroke:#3f3d56;stroke-width:2.9"
     id="path3263-01"
     cx="553.29901"
     cy="771.13562"
     r="7.1320243" />
  <circle
     style="fill:#ffffff;fill-opacity:1;fill-rule:evenodd;stroke:#3f3d56;stroke-width:2.9"
     id="path3263-04"
     cx="724.15497"
     cy="711.04016"
     r="7.1320243" />
  <circle
     style="fill:#ffffff;fill-opacity:1;fill-rule:evenodd;stroke:#3f3d56;stroke-width:2.9"
     id="path3263-94"
     cx="587.60107"
     cy="217.49199"
     r="7.1320243" />
  <circle
     style="fill:#ffffff;fill-opacity:1;fill-rule:evenodd;stroke:#3f3d56;stroke-width:2.9"
     id="path3263-03"
     cx="451.18063"
     cy="163.94725"
     r="7.1320243" />
  <circle
     style="fill:#ffffff;fill-opacity:1;fill-rule:evenodd;stroke:#3f3d56;stroke-width:2.9"
     id="path3263-340"
     cx="454.3967"
     cy="99.32975"
     r="7.1320243" />
  <circle
     style="fill:#ffffff;fill-opacity:1;fill-rule:evenodd;stroke:#3f3d56;stroke-width:2.9"
     id="path3263-08"
     cx="246.62827"
     cy="101.96331"
     r="7.1320243" />
  <circle
     style="fill:#ffffff;fill-opacity:1;fill-rule:evenodd;stroke:#3f3d56;stroke-width:2.9"
     id="path3263-53"
     cx="82.86824"
     cy="188.21916"
     r="7.1320243" />
  <circle
     style="fill:#ffffff;fill-opacity:1;fill-rule:evenodd;stroke:#3f3d56;stroke-width:2.9"
     id="path3263-55"
     cx="54.730614"
     cy="141.19608"
     r="7.1320243" />
  <circle
     style="fill:#ffffff;fill-opacity:1;fill-rule:evenodd;stroke:#3f3d56;stroke-width:2.9"
     id="path3263-64"
     cx="1546.8425"
     cy="372.28479"
     r="7.1320243" />
  <circle
     style="fill:#ffffff;fill-opacity:1;fill-rule:evenodd;stroke:#3f3d56;stroke-width:2.9"
     id="path3263-02"
     cx="1938.9353"
     cy="192.51306"
     r="7.1320243" />
  <circle
     style="fill:#ffffff;fill-opacity:1;fill-rule:evenodd;stroke:#3f3d56;stroke-width:2.9"
     id="path3263-053"
     cx="2022.5344"
     cy="551.8418"
     r="7.1320243" />
  <circle
     style="fill:#ffffff;fill-opacity:1;fill-rule:evenodd;stroke:#3f3d56;stroke-width:2.9"
     id="path3263-07"
     cx="1980.0624"
     cy="827.89874"
     r="7.1320243" />
  <circle
     style="fill:#ffffff;fill-opacity:1;fill-rule:evenodd;stroke:#3f3d56;stroke-width:2.9"
     id="path3263-82"
     cx="1924.6747"
     cy="941.62842"
     r="7.1320243" />
  <circle
     style="fill:#ffffff;fill-opacity:1;fill-rule:evenodd;stroke:#3f3d56;stroke-width:2.9"
     id="path3263-70"
     cx="1864.7061"
     cy="800.45471"
     r="7.1320243" />
  <circle
     style="fill:#ffffff;fill-opacity:1;fill-rule:evenodd;stroke:#3f3d56;stroke-width:2.9"
     id="path3263-70-2"
     cx="1874.1455"
     cy="557.71381"
     r="7.1320243" />
  <circle
     style="fill:#ffffff;fill-opacity:1;fill-rule:evenodd;stroke:#3f3d56;stroke-width:2.9"
     id="path3263-70-7"
     cx="1842.1428"
     cy="423.40482"
     r="7.1320243" />
  <circle
     style="fill:#ffffff;fill-opacity:1;fill-rule:evenodd;stroke:#3f3d56;stroke-width:2.9"
     id="path3263-70-4"
     cx="1680.9277"
     cy="287.90176"
     r="7.1320243" />
  <circle
     style="fill:#ffffff;fill-opacity:1;fill-rule:evenodd;stroke:#3f3d56;stroke-width:2.9"
     id="path3263-70-9"
     cx="1561.8854"
     cy="215.07625"
     r="7.1320243" />
  <circle
     style="fill:#ffffff;fill-opacity:1;fill-rule:evenodd;stroke:#3f3d56;stroke-width:2.9"
     id="path3263-70-43"
     cx="1566.7057"
     cy="117.27699"
     r="7.1320243" />
  <circle
     style="fill:#ffffff;fill-opacity:1;fill-rule:evenodd;stroke:#3f3d56;stroke-width:2.9"
     id="path3263-70-5"
     cx="370.96085"
     cy="186.98854"
     r="7.1320243" />
  <path
     sodipodi:type="star"
     style="fill:#ffffff;fill-opacity:1;fill-rule:evenodd;stroke:#3f3d56;stroke-width:2.9"
     id="path5033"
     inkscape:flatsided="false"
     sodipodi:sides="21"
     sodipodi:cx="211.65767"
     sodipodi:cy="550.64423"
     sodipodi:r1="24"
     sodipodi:r2="12"
     sodipodi:arg1="0.78112656"
     sodipodi:arg2="0.93072621"
     inkscape:rounded="0"
     inkscape:randomized="0"
     d="m 228.70057,567.54214 -9.87588,-7.27327 4.13796,11.54603 -7.29329,-9.86111 0.55088,12.25276 -4.06266,-11.57274 -3.08516,11.87077 -0.47104,-12.25608 -6.44707,10.43402 3.16243,-11.85042 -9.23612,8.07015 6.51491,-10.39179 -11.20451,4.98922 9.2885,-8.00981 -12.17733,1.46498 11.23678,-4.91613 -12.06813,-2.18943 12.18661,-1.38562 -10.88663,-5.6493 12.05361,2.268 -8.73781,-8.60721 10.8496,5.72011 -5.81259,-10.80034 8.68155,8.66396 -2.3709,-12.0338 5.7421,10.83798 1.28146,-12.19801 2.29245,12.04899 4.81995,-11.27837 -1.36089,12.1894 7.93017,-9.35659 -4.89333,11.24672 10.33576,-6.60344 -7.99095,9.30473 11.82297,-3.26356 -10.37856,6.53597 12.25966,0.36632 -11.84399,3.18646 11.60703,3.96364 -12.25701,-0.44617 9.92305,7.20877 -11.58096,-4.03917 z"
     inkscape:transform-center-x="0.21274886"
     inkscape:transform-center-y="-0.23957237"
     transform="matrix(0.92859308,0,0,0.92783797,13.382753,37.985406)" />
  <path
     sodipodi:type="star"
     style="fill:#ffffff;fill-opacity:1;fill-rule:evenodd;stroke:#3f3d56;stroke-width:2.9"
     id="path5033-1"
     inkscape:flatsided="false"
     sodipodi:sides="21"
     sodipodi:cx="211.65767"
     sodipodi:cy="550.64423"
     sodipodi:r1="24"
     sodipodi:r2="12"
     sodipodi:arg1="0.78112656"
     sodipodi:arg2="0.93072621"
     inkscape:rounded="0"
     inkscape:randomized="0"
     inkscape:transform-center-x="0.21274886"
     inkscape:transform-center-y="-0.23957237"
     transform="matrix(0.92859308,0,0,0.92783797,164.06467,95.568244)"
     d="m 228.70057,567.54214 -9.87588,-7.27327 4.13796,11.54603 -7.29329,-9.86111 0.55088,12.25276 -4.06266,-11.57274 -3.08516,11.87077 -0.47104,-12.25608 -6.44707,10.43402 3.16243,-11.85042 -9.23612,8.07015 6.51491,-10.39179 -11.20451,4.98922 9.2885,-8.00981 -12.17733,1.46498 11.23678,-4.91613 -12.06813,-2.18943 12.18661,-1.38562 -10.88663,-5.6493 12.05361,2.268 -8.73781,-8.60721 10.8496,5.72011 -5.81259,-10.80034 8.68155,8.66396 -2.3709,-12.0338 5.7421,10.83798 1.28146,-12.19801 2.29245,12.04899 4.81995,-11.27837 -1.36089,12.1894 7.93017,-9.35659 -4.89333,11.24672 10.33576,-6.60344 -7.99095,9.30473 11.82297,-3.26356 -10.37856,6.53597 12.25966,0.36632 -11.84399,3.18646 11.60703,3.96364 -12.25701,-0.44617 9.92305,7.20877 -11.58096,-4.03917 z" />
  <path
     sodipodi:type="star"
     style="fill:#ffffff;fill-opacity:1;fill-rule:evenodd;stroke:#3f3d56;stroke-width:2.9"
     id="path5033-4"
     inkscape:flatsided="false"
     sodipodi:sides="21"
     sodipodi:cx="211.65767"
     sodipodi:cy="550.64423"
     sodipodi:r1="24"
     sodipodi:r2="12"
     sodipodi:arg1="0.78112656"
     sodipodi:arg2="0.93072621"
     inkscape:rounded="0"
     inkscape:randomized="0"
     inkscape:transform-center-x="0.21274886"
     inkscape:transform-center-y="-0.23957237"
     transform="matrix(0.92859308,0,0,0.92783797,113.43293,-52.216826)"
     d="m 228.70057,567.54214 -9.87588,-7.27327 4.13796,11.54603 -7.29329,-9.86111 0.55088,12.25276 -4.06266,-11.57274 -3.08516,11.87077 -0.47104,-12.25608 -6.44707,10.43402 3.16243,-11.85042 -9.23612,8.07015 6.51491,-10.39179 -11.20451,4.98922 9.2885,-8.00981 -12.17733,1.46498 11.23678,-4.91613 -12.06813,-2.18943 12.18661,-1.38562 -10.88663,-5.6493 12.05361,2.268 -8.73781,-8.60721 10.8496,5.72011 -5.81259,-10.80034 8.68155,8.66396 -2.3709,-12.0338 5.7421,10.83798 1.28146,-12.19801 2.29245,12.04899 4.81995,-11.27837 -1.36089,12.1894 7.93017,-9.35659 -4.89333,11.24672 10.33576,-6.60344 -7.99095,9.30473 11.82297,-3.26356 -10.37856,6.53597 12.25966,0.36632 -11.84399,3.18646 11.60703,3.96364 -12.25701,-0.44617 9.92305,7.20877 -11.58096,-4.03917 z" />
  <path
     sodipodi:type="star"
     style="fill:#ffffff;fill-opacity:1;fill-rule:evenodd;stroke:#3f3d56;stroke-width:2.9"
     id="path5033-8"
     inkscape:flatsided="false"
     sodipodi:sides="21"
     sodipodi:cx="211.65767"
     sodipodi:cy="550.64423"
     sodipodi:r1="24"
     sodipodi:r2="12"
     sodipodi:arg1="0.78112656"
     sodipodi:arg2="0.93072621"
     inkscape:rounded="0"
     inkscape:randomized="0"
     inkscape:transform-center-x="0.21274886"
     inkscape:transform-center-y="-0.23957237"
     transform="matrix(0.92859308,0,0,0.92783797,34.510978,-267.88167)"
     d="m 228.70057,567.54214 -9.87588,-7.27327 4.13796,11.54603 -7.29329,-9.86111 0.55088,12.25276 -4.06266,-11.57274 -3.08516,11.87077 -0.47104,-12.25608 -6.44707,10.43402 3.16243,-11.85042 -9.23612,8.07015 6.51491,-10.39179 -11.20451,4.98922 9.2885,-8.00981 -12.17733,1.46498 11.23678,-4.91613 -12.06813,-2.18943 12.18661,-1.38562 -10.88663,-5.6493 12.05361,2.268 -8.73781,-8.60721 10.8496,5.72011 -5.81259,-10.80034 8.68155,8.66396 -2.3709,-12.0338 5.7421,10.83798 1.28146,-12.19801 2.29245,12.04899 4.81995,-11.27837 -1.36089,12.1894 7.93017,-9.35659 -4.89333,11.24672 10.33576,-6.60344 -7.99095,9.30473 11.82297,-3.26356 -10.37856,6.53597 12.25966,0.36632 -11.84399,3.18646 11.60703,3.96364 -12.25701,-0.44617 9.92305,7.20877 -11.58096,-4.03917 z" />
  <path
     sodipodi:type="star"
     style="fill:#ffffff;fill-opacity:1;fill-rule:evenodd;stroke:#3f3d56;stroke-width:2.9"
     id="path5033-84"
     inkscape:flatsided="false"
     sodipodi:sides="21"
     sodipodi:cx="211.65767"
     sodipodi:cy="550.64423"
     sodipodi:r1="24"
     sodipodi:r2="12"
     sodipodi:arg1="0.78112656"
     sodipodi:arg2="0.93072621"
     inkscape:rounded="0"
     inkscape:randomized="0"
     inkscape:transform-center-x="0.21274886"
     inkscape:transform-center-y="-0.23957237"
     transform="matrix(0.92859308,0,0,0.92783797,-133.9497,92.841215)"
     d="m 228.70057,567.54214 -9.87588,-7.27327 4.13796,11.54603 -7.29329,-9.86111 0.55088,12.25276 -4.06266,-11.57274 -3.08516,11.87077 -0.47104,-12.25608 -6.44707,10.43402 3.16243,-11.85042 -9.23612,8.07015 6.51491,-10.39179 -11.20451,4.98922 9.2885,-8.00981 -12.17733,1.46498 11.23678,-4.91613 -12.06813,-2.18943 12.18661,-1.38562 -10.88663,-5.6493 12.05361,2.268 -8.73781,-8.60721 10.8496,5.72011 -5.81259,-10.80034 8.68155,8.66396 -2.3709,-12.0338 5.7421,10.83798 1.28146,-12.19801 2.29245,12.04899 4.81995,-11.27837 -1.36089,12.1894 7.93017,-9.35659 -4.89333,11.24672 10.33576,-6.60344 -7.99095,9.30473 11.82297,-3.26356 -10.37856,6.53597 12.25966,0.36632 -11.84399,3.18646 11.60703,3.96364 -12.25701,-0.44617 9.92305,7.20877 -11.58096,-4.03917 z" />
  <path
     sodipodi:type="star"
     style="fill:#ffffff;fill-opacity:1;fill-rule:evenodd;stroke:#3f3d56;stroke-width:2.9"
     id="path5033-87"
     inkscape:flatsided="false"
     sodipodi:sides="21"
     sodipodi:cx="211.65767"
     sodipodi:cy="550.64423"
     sodipodi:r1="24"
     sodipodi:r2="12"
     sodipodi:arg1="0.78112656"
     sodipodi:arg2="0.93072621"
     inkscape:rounded="0"
     inkscape:randomized="0"
     inkscape:transform-center-x="0.21274886"
     inkscape:transform-center-y="-0.23957237"
     transform="matrix(0.92859308,0,0,0.92783797,327.31137,-81.130694)"
     d="m 228.70057,567.54214 -9.87588,-7.27327 4.13796,11.54603 -7.29329,-9.86111 0.55088,12.25276 -4.06266,-11.57274 -3.08516,11.87077 -0.47104,-12.25608 -6.44707,10.43402 3.16243,-11.85042 -9.23612,8.07015 6.51491,-10.39179 -11.20451,4.98922 9.2885,-8.00981 -12.17733,1.46498 11.23678,-4.91613 -12.06813,-2.18943 12.18661,-1.38562 -10.88663,-5.6493 12.05361,2.268 -8.73781,-8.60721 10.8496,5.72011 -5.81259,-10.80034 8.68155,8.66396 -2.3709,-12.0338 5.7421,10.83798 1.28146,-12.19801 2.29245,12.04899 4.81995,-11.27837 -1.36089,12.1894 7.93017,-9.35659 -4.89333,11.24672 10.33576,-6.60344 -7.99095,9.30473 11.82297,-3.26356 -10.37856,6.53597 12.25966,0.36632 -11.84399,3.18646 11.60703,3.96364 -12.25701,-0.44617 9.92305,7.20877 -11.58096,-4.03917 z" />
  <path
     sodipodi:type="star"
     style="fill:#ffffff;fill-opacity:1;fill-rule:evenodd;stroke:#3f3d56;stroke-width:2.9"
     id="path5033-88"
     inkscape:flatsided="false"
     sodipodi:sides="21"
     sodipodi:cx="211.65767"
     sodipodi:cy="550.64423"
     sodipodi:r1="24"
     sodipodi:r2="12"
     sodipodi:arg1="0.78112656"
     sodipodi:arg2="0.93072621"
     inkscape:rounded="0"
     inkscape:randomized="0"
     inkscape:transform-center-x="0.21274886"
     inkscape:transform-center-y="-0.23957237"
     transform="matrix(0.92859308,0,0,0.92783797,194.98793,-156.56614)"
     d="m 228.70057,567.54214 -9.87588,-7.27327 4.13796,11.54603 -7.29329,-9.86111 0.55088,12.25276 -4.06266,-11.57274 -3.08516,11.87077 -0.47104,-12.25608 -6.44707,10.43402 3.16243,-11.85042 -9.23612,8.07015 6.51491,-10.39179 -11.20451,4.98922 9.2885,-8.00981 -12.17733,1.46498 11.23678,-4.91613 -12.06813,-2.18943 12.18661,-1.38562 -10.88663,-5.6493 12.05361,2.268 -8.73781,-8.60721 10.8496,5.72011 -5.81259,-10.80034 8.68155,8.66396 -2.3709,-12.0338 5.7421,10.83798 1.28146,-12.19801 2.29245,12.04899 4.81995,-11.27837 -1.36089,12.1894 7.93017,-9.35659 -4.89333,11.24672 10.33576,-6.60344 -7.99095,9.30473 11.82297,-3.26356 -10.37856,6.53597 12.25966,0.36632 -11.84399,3.18646 11.60703,3.96364 -12.25701,-0.44617 9.92305,7.20877 -11.58096,-4.03917 z" />
  <path
     sodipodi:type="star"
     style="fill:#ffffff;fill-opacity:1;fill-rule:evenodd;stroke:#3f3d56;stroke-width:2.9"
     id="path5033-0"
     inkscape:flatsided="false"
     sodipodi:sides="21"
     sodipodi:cx="211.65767"
     sodipodi:cy="550.64423"
     sodipodi:r1="24"
     sodipodi:r2="12"
     sodipodi:arg1="0.78112656"
     sodipodi:arg2="0.93072621"
     inkscape:rounded="0"
     inkscape:randomized="0"
     inkscape:transform-center-x="0.21274886"
     inkscape:transform-center-y="-0.23957237"
     transform="matrix(0.92859308,0,0,0.92783797,262.32949,-310.85521)"
     d="m 228.70057,567.54214 -9.87588,-7.27327 4.13796,11.54603 -7.29329,-9.86111 0.55088,12.25276 -4.06266,-11.57274 -3.08516,11.87077 -0.47104,-12.25608 -6.44707,10.43402 3.16243,-11.85042 -9.23612,8.07015 6.51491,-10.39179 -11.20451,4.98922 9.2885,-8.00981 -12.17733,1.46498 11.23678,-4.91613 -12.06813,-2.18943 12.18661,-1.38562 -10.88663,-5.6493 12.05361,2.268 -8.73781,-8.60721 10.8496,5.72011 -5.81259,-10.80034 8.68155,8.66396 -2.3709,-12.0338 5.7421,10.83798 1.28146,-12.19801 2.29245,12.04899 4.81995,-11.27837 -1.36089,12.1894 7.93017,-9.35659 -4.89333,11.24672 10.33576,-6.60344 -7.99095,9.30473 11.82297,-3.26356 -10.37856,6.53597 12.25966,0.36632 -11.84399,3.18646 11.60703,3.96364 -12.25701,-0.44617 9.92305,7.20877 -11.58096,-4.03917 z" />
  <path
     sodipodi:type="star"
     style="fill:#ffffff;fill-opacity:1;fill-rule:evenodd;stroke:#3f3d56;stroke-width:2.9"
     id="path5033-10"
     inkscape:flatsided="false"
     sodipodi:sides="21"
     sodipodi:cx="211.65767"
     sodipodi:cy="550.64423"
     sodipodi:r1="24"
     sodipodi:r2="12"
     sodipodi:arg1="0.78112656"
     sodipodi:arg2="0.93072621"
     inkscape:rounded="0"
     inkscape:randomized="0"
     inkscape:transform-center-x="0.21274886"
     inkscape:transform-center-y="-0.23957237"
     transform="matrix(0.92859308,0,0,0.92783797,30.237633,-331.864)"
     d="m 228.70057,567.54214 -9.87588,-7.27327 4.13796,11.54603 -7.29329,-9.86111 0.55088,12.25276 -4.06266,-11.57274 -3.08516,11.87077 -0.47104,-12.25608 -6.44707,10.43402 3.16243,-11.85042 -9.23612,8.07015 6.51491,-10.39179 -11.20451,4.98922 9.2885,-8.00981 -12.17733,1.46498 11.23678,-4.91613 -12.06813,-2.18943 12.18661,-1.38562 -10.88663,-5.6493 12.05361,2.268 -8.73781,-8.60721 10.8496,5.72011 -5.81259,-10.80034 8.68155,8.66396 -2.3709,-12.0338 5.7421,10.83798 1.28146,-12.19801 2.29245,12.04899 4.81995,-11.27837 -1.36089,12.1894 7.93017,-9.35659 -4.89333,11.24672 10.33576,-6.60344 -7.99095,9.30473 11.82297,-3.26356 -10.37856,6.53597 12.25966,0.36632 -11.84399,3.18646 11.60703,3.96364 -12.25701,-0.44617 9.92305,7.20877 -11.58096,-4.03917 z" />
  <path
     sodipodi:type="star"
     style="fill:#ffffff;fill-opacity:1;fill-rule:evenodd;stroke:#3f3d56;stroke-width:2.9"
     id="path5033-3"
     inkscape:flatsided="false"
     sodipodi:sides="21"
     sodipodi:cx="211.65767"
     sodipodi:cy="550.64423"
     sodipodi:r1="24"
     sodipodi:r2="12"
     sodipodi:arg1="0.78112656"
     sodipodi:arg2="0.93072621"
     inkscape:rounded="0"
     inkscape:randomized="0"
     inkscape:transform-center-x="0.21274886"
     inkscape:transform-center-y="-0.23957237"
     transform="matrix(0.92859308,0,0,0.92783797,8.6299433,228.23341)"
     d="m 228.70057,567.54214 -9.87588,-7.27327 4.13796,11.54603 -7.29329,-9.86111 0.55088,12.25276 -4.06266,-11.57274 -3.08516,11.87077 -0.47104,-12.25608 -6.44707,10.43402 3.16243,-11.85042 -9.23612,8.07015 6.51491,-10.39179 -11.20451,4.98922 9.2885,-8.00981 -12.17733,1.46498 11.23678,-4.91613 -12.06813,-2.18943 12.18661,-1.38562 -10.88663,-5.6493 12.05361,2.268 -8.73781,-8.60721 10.8496,5.72011 -5.81259,-10.80034 8.68155,8.66396 -2.3709,-12.0338 5.7421,10.83798 1.28146,-12.19801 2.29245,12.04899 4.81995,-11.27837 -1.36089,12.1894 7.93017,-9.35659 -4.89333,11.24672 10.33576,-6.60344 -7.99095,9.30473 11.82297,-3.26356 -10.37856,6.53597 12.25966,0.36632 -11.84399,3.18646 11.60703,3.96364 -12.25701,-0.44617 9.92305,7.20877 -11.58096,-4.03917 z" />
  <path
     sodipodi:type="star"
     style="fill:#ffffff;fill-opacity:1;fill-rule:evenodd;stroke:#3f3d56;stroke-width:2.9"
     id="path5033-2"
     inkscape:flatsided="false"
     sodipodi:sides="21"
     sodipodi:cx="211.65767"
     sodipodi:cy="550.64423"
     sodipodi:r1="24"
     sodipodi:r2="12"
     sodipodi:arg1="0.78112656"
     sodipodi:arg2="0.93072621"
     inkscape:rounded="0"
     inkscape:randomized="0"
     inkscape:transform-center-x="0.21274886"
     inkscape:transform-center-y="-0.23957237"
     transform="matrix(0.92859308,0,0,0.92783797,135.14992,349.69408)"
     d="m 228.70057,567.54214 -9.87588,-7.27327 4.13796,11.54603 -7.29329,-9.86111 0.55088,12.25276 -4.06266,-11.57274 -3.08516,11.87077 -0.47104,-12.25608 -6.44707,10.43402 3.16243,-11.85042 -9.23612,8.07015 6.51491,-10.39179 -11.20451,4.98922 9.2885,-8.00981 -12.17733,1.46498 11.23678,-4.91613 -12.06813,-2.18943 12.18661,-1.38562 -10.88663,-5.6493 12.05361,2.268 -8.73781,-8.60721 10.8496,5.72011 -5.81259,-10.80034 8.68155,8.66396 -2.3709,-12.0338 5.7421,10.83798 1.28146,-12.19801 2.29245,12.04899 4.81995,-11.27837 -1.36089,12.1894 7.93017,-9.35659 -4.89333,11.24672 10.33576,-6.60344 -7.99095,9.30473 11.82297,-3.26356 -10.37856,6.53597 12.25966,0.36632 -11.84399,3.18646 11.60703,3.96364 -12.25701,-0.44617 9.92305,7.20877 -11.58096,-4.03917 z" />
  <path
     sodipodi:type="star"
     style="fill:#ffffff;fill-opacity:1;fill-rule:evenodd;stroke:#3f3d56;stroke-width:2.9"
     id="path5033-12"
     inkscape:flatsided="false"
     sodipodi:sides="21"
     sodipodi:cx="211.65767"
     sodipodi:cy="550.64423"
     sodipodi:r1="24"
     sodipodi:r2="12"
     sodipodi:arg1="0.78112656"
     sodipodi:arg2="0.93072621"
     inkscape:rounded="0"
     inkscape:randomized="0"
     inkscape:transform-center-x="0.21274886"
     inkscape:transform-center-y="-0.23957237"
     transform="matrix(0.92859308,0,0,0.92783797,268.53359,205.123)"
     d="m 228.70057,567.54214 -9.87588,-7.27327 4.13796,11.54603 -7.29329,-9.86111 0.55088,12.25276 -4.06266,-11.57274 -3.08516,11.87077 -0.47104,-12.25608 -6.44707,10.43402 3.16243,-11.85042 -9.23612,8.07015 6.51491,-10.39179 -11.20451,4.98922 9.2885,-8.00981 -12.17733,1.46498 11.23678,-4.91613 -12.06813,-2.18943 12.18661,-1.38562 -10.88663,-5.6493 12.05361,2.268 -8.73781,-8.60721 10.8496,5.72011 -5.81259,-10.80034 8.68155,8.66396 -2.3709,-12.0338 5.7421,10.83798 1.28146,-12.19801 2.29245,12.04899 4.81995,-11.27837 -1.36089,12.1894 7.93017,-9.35659 -4.89333,11.24672 10.33576,-6.60344 -7.99095,9.30473 11.82297,-3.26356 -10.37856,6.53597 12.25966,0.36632 -11.84399,3.18646 11.60703,3.96364 -12.25701,-0.44617 9.92305,7.20877 -11.58096,-4.03917 z" />
  <path
     sodipodi:type="star"
     style="fill:#ffffff;fill-opacity:1;fill-rule:evenodd;stroke:#3f3d56;stroke-width:2.9"
     id="path5033-5"
     inkscape:flatsided="false"
     sodipodi:sides="21"
     sodipodi:cx="211.65767"
     sodipodi:cy="550.64423"
     sodipodi:r1="24"
     sodipodi:r2="12"
     sodipodi:arg1="0.78112656"
     sodipodi:arg2="0.93072621"
     inkscape:rounded="0"
     inkscape:randomized="0"
     inkscape:transform-center-x="0.21274886"
     inkscape:transform-center-y="-0.23957237"
     transform="matrix(0.92859308,0,0,0.92783797,240.0298,87.243676)"
     d="m 228.70057,567.54214 -9.87588,-7.27327 4.13796,11.54603 -7.29329,-9.86111 0.55088,12.25276 -4.06266,-11.57274 -3.08516,11.87077 -0.47104,-12.25608 -6.44707,10.43402 3.16243,-11.85042 -9.23612,8.07015 6.51491,-10.39179 -11.20451,4.98922 9.2885,-8.00981 -12.17733,1.46498 11.23678,-4.91613 -12.06813,-2.18943 12.18661,-1.38562 -10.88663,-5.6493 12.05361,2.268 -8.73781,-8.60721 10.8496,5.72011 -5.81259,-10.80034 8.68155,8.66396 -2.3709,-12.0338 5.7421,10.83798 1.28146,-12.19801 2.29245,12.04899 4.81995,-11.27837 -1.36089,12.1894 7.93017,-9.35659 -4.89333,11.24672 10.33576,-6.60344 -7.99095,9.30473 11.82297,-3.26356 -10.37856,6.53597 12.25966,0.36632 -11.84399,3.18646 11.60703,3.96364 -12.25701,-0.44617 9.92305,7.20877 -11.58096,-4.03917 z" />
  <path
     sodipodi:type="star"
     style="fill:#ffffff;fill-opacity:1;fill-rule:evenodd;stroke:#3f3d56;stroke-width:2.9"
     id="path5033-7"
     inkscape:flatsided="false"
     sodipodi:sides="21"
     sodipodi:cx="211.65767"
     sodipodi:cy="550.64423"
     sodipodi:r1="24"
     sodipodi:r2="12"
     sodipodi:arg1="0.78112656"
     sodipodi:arg2="0.93072621"
     inkscape:rounded="0"
     inkscape:randomized="0"
     inkscape:transform-center-x="0.21274886"
     inkscape:transform-center-y="-0.23957237"
     transform="matrix(0.92859308,0,0,0.92783797,1345.4986,-39.479592)"
     d="m 228.70057,567.54214 -9.87588,-7.27327 4.13796,11.54603 -7.29329,-9.86111 0.55088,12.25276 -4.06266,-11.57274 -3.08516,11.87077 -0.47104,-12.25608 -6.44707,10.43402 3.16243,-11.85042 -9.23612,8.07015 6.51491,-10.39179 -11.20451,4.98922 9.2885,-8.00981 -12.17733,1.46498 11.23678,-4.91613 -12.06813,-2.18943 12.18661,-1.38562 -10.88663,-5.6493 12.05361,2.268 -8.73781,-8.60721 10.8496,5.72011 -5.81259,-10.80034 8.68155,8.66396 -2.3709,-12.0338 5.7421,10.83798 1.28146,-12.19801 2.29245,12.04899 4.81995,-11.27837 -1.36089,12.1894 7.93017,-9.35659 -4.89333,11.24672 10.33576,-6.60344 -7.99095,9.30473 11.82297,-3.26356 -10.37856,6.53597 12.25966,0.36632 -11.84399,3.18646 11.60703,3.96364 -12.25701,-0.44617 9.92305,7.20877 -11.58096,-4.03917 z" />
  <path
     sodipodi:type="star"
     style="fill:#ffffff;fill-opacity:1;fill-rule:evenodd;stroke:#3f3d56;stroke-width:2.9"
     id="path5033-25"
     inkscape:flatsided="false"
     sodipodi:sides="21"
     sodipodi:cx="211.65767"
     sodipodi:cy="550.64423"
     sodipodi:r1="24"
     sodipodi:r2="12"
     sodipodi:arg1="0.78112656"
     sodipodi:arg2="0.93072621"
     inkscape:rounded="0"
     inkscape:randomized="0"
     inkscape:transform-center-x="0.21274886"
     inkscape:transform-center-y="-0.23957237"
     transform="matrix(0.92859308,0,0,0.92783797,1307.0889,-135.31639)"
     d="m 228.70057,567.54214 -9.87588,-7.27327 4.13796,11.54603 -7.29329,-9.86111 0.55088,12.25276 -4.06266,-11.57274 -3.08516,11.87077 -0.47104,-12.25608 -6.44707,10.43402 3.16243,-11.85042 -9.23612,8.07015 6.51491,-10.39179 -11.20451,4.98922 9.2885,-8.00981 -12.17733,1.46498 11.23678,-4.91613 -12.06813,-2.18943 12.18661,-1.38562 -10.88663,-5.6493 12.05361,2.268 -8.73781,-8.60721 10.8496,5.72011 -5.81259,-10.80034 8.68155,8.66396 -2.3709,-12.0338 5.7421,10.83798 1.28146,-12.19801 2.29245,12.04899 4.81995,-11.27837 -1.36089,12.1894 7.93017,-9.35659 -4.89333,11.24672 10.33576,-6.60344 -7.99095,9.30473 11.82297,-3.26356 -10.37856,6.53597 12.25966,0.36632 -11.84399,3.18646 11.60703,3.96364 -12.25701,-0.44617 9.92305,7.20877 -11.58096,-4.03917 z" />
  <path
     sodipodi:type="star"
     style="fill:#ffffff;fill-opacity:1;fill-rule:evenodd;stroke:#3f3d56;stroke-width:2.9"
     id="path5033-9"
     inkscape:flatsided="false"
     sodipodi:sides="21"
     sodipodi:cx="211.65767"
     sodipodi:cy="550.64423"
     sodipodi:r1="24"
     sodipodi:r2="12"
     sodipodi:arg1="0.78112656"
     sodipodi:arg2="0.93072621"
     inkscape:rounded="0"
     inkscape:randomized="0"
     inkscape:transform-center-x="0.21274886"
     inkscape:transform-center-y="-0.23957237"
     transform="matrix(0.92859308,0,0,0.92783797,1364.6527,-237.56321)"
     d="m 228.70057,567.54214 -9.87588,-7.27327 4.13796,11.54603 -7.29329,-9.86111 0.55088,12.25276 -4.06266,-11.57274 -3.08516,11.87077 -0.47104,-12.25608 -6.44707,10.43402 3.16243,-11.85042 -9.23612,8.07015 6.51491,-10.39179 -11.20451,4.98922 9.2885,-8.00981 -12.17733,1.46498 11.23678,-4.91613 -12.06813,-2.18943 12.18661,-1.38562 -10.88663,-5.6493 12.05361,2.268 -8.73781,-8.60721 10.8496,5.72011 -5.81259,-10.80034 8.68155,8.66396 -2.3709,-12.0338 5.7421,10.83798 1.28146,-12.19801 2.29245,12.04899 4.81995,-11.27837 -1.36089,12.1894 7.93017,-9.35659 -4.89333,11.24672 10.33576,-6.60344 -7.99095,9.30473 11.82297,-3.26356 -10.37856,6.53597 12.25966,0.36632 -11.84399,3.18646 11.60703,3.96364 -12.25701,-0.44617 9.92305,7.20877 -11.58096,-4.03917 z" />
  <path
     sodipodi:type="star"
     style="fill:#ffffff;fill-opacity:1;fill-rule:evenodd;stroke:#3f3d56;stroke-width:2.9"
     id="path5033-57"
     inkscape:flatsided="false"
     sodipodi:sides="21"
     sodipodi:cx="211.65767"
     sodipodi:cy="550.64423"
     sodipodi:r1="24"
     sodipodi:r2="12"
     sodipodi:arg1="0.78112656"
     sodipodi:arg2="0.93072621"
     inkscape:rounded="0"
     inkscape:randomized="0"
     inkscape:transform-center-x="0.21274886"
     inkscape:transform-center-y="-0.23957237"
     transform="matrix(0.92859308,0,0,0.92783797,1332.5667,210.57793)"
     d="m 228.70057,567.54214 -9.87588,-7.27327 4.13796,11.54603 -7.29329,-9.86111 0.55088,12.25276 -4.06266,-11.57274 -3.08516,11.87077 -0.47104,-12.25608 -6.44707,10.43402 3.16243,-11.85042 -9.23612,8.07015 6.51491,-10.39179 -11.20451,4.98922 9.2885,-8.00981 -12.17733,1.46498 11.23678,-4.91613 -12.06813,-2.18943 12.18661,-1.38562 -10.88663,-5.6493 12.05361,2.268 -8.73781,-8.60721 10.8496,5.72011 -5.81259,-10.80034 8.68155,8.66396 -2.3709,-12.0338 5.7421,10.83798 1.28146,-12.19801 2.29245,12.04899 4.81995,-11.27837 -1.36089,12.1894 7.93017,-9.35659 -4.89333,11.24672 10.33576,-6.60344 -7.99095,9.30473 11.82297,-3.26356 -10.37856,6.53597 12.25966,0.36632 -11.84399,3.18646 11.60703,3.96364 -12.25701,-0.44617 9.92305,7.20877 -11.58096,-4.03917 z" />
  <path
     sodipodi:type="star"
     style="fill:#ffffff;fill-opacity:1;fill-rule:evenodd;stroke:#3f3d56;stroke-width:2.9"
     id="path5033-35"
     inkscape:flatsided="false"
     sodipodi:sides="21"
     sodipodi:cx="211.65767"
     sodipodi:cy="550.64423"
     sodipodi:r1="24"
     sodipodi:r2="12"
     sodipodi:arg1="0.78112656"
     sodipodi:arg2="0.93072621"
     inkscape:rounded="0"
     inkscape:randomized="0"
     inkscape:transform-center-x="0.21274886"
     inkscape:transform-center-y="-0.23957237"
     transform="matrix(0.92859308,0,0,0.92783797,1596.5386,203.45029)"
     d="m 228.70057,567.54214 -9.87588,-7.27327 4.13796,11.54603 -7.29329,-9.86111 0.55088,12.25276 -4.06266,-11.57274 -3.08516,11.87077 -0.47104,-12.25608 -6.44707,10.43402 3.16243,-11.85042 -9.23612,8.07015 6.51491,-10.39179 -11.20451,4.98922 9.2885,-8.00981 -12.17733,1.46498 11.23678,-4.91613 -12.06813,-2.18943 12.18661,-1.38562 -10.88663,-5.6493 12.05361,2.268 -8.73781,-8.60721 10.8496,5.72011 -5.81259,-10.80034 8.68155,8.66396 -2.3709,-12.0338 5.7421,10.83798 1.28146,-12.19801 2.29245,12.04899 4.81995,-11.27837 -1.36089,12.1894 7.93017,-9.35659 -4.89333,11.24672 10.33576,-6.60344 -7.99095,9.30473 11.82297,-3.26356 -10.37856,6.53597 12.25966,0.36632 -11.84399,3.18646 11.60703,3.96364 -12.25701,-0.44617 9.92305,7.20877 -11.58096,-4.03917 z" />
  <path
     sodipodi:type="star"
     style="fill:#ffffff;fill-opacity:1;fill-rule:evenodd;stroke:#3f3d56;stroke-width:2.9"
     id="path5033-75"
     inkscape:flatsided="false"
     sodipodi:sides="21"
     sodipodi:cx="211.65767"
     sodipodi:cy="550.64423"
     sodipodi:r1="24"
     sodipodi:r2="12"
     sodipodi:arg1="0.78112656"
     sodipodi:arg2="0.93072621"
     inkscape:rounded="0"
     inkscape:randomized="0"
     inkscape:transform-center-x="0.21274886"
     inkscape:transform-center-y="-0.23957237"
     transform="matrix(0.92859308,0,0,0.92783797,1581.7784,25.511711)"
     d="m 228.70057,567.54214 -9.87588,-7.27327 4.13796,11.54603 -7.29329,-9.86111 0.55088,12.25276 -4.06266,-11.57274 -3.08516,11.87077 -0.47104,-12.25608 -6.44707,10.43402 3.16243,-11.85042 -9.23612,8.07015 6.51491,-10.39179 -11.20451,4.98922 9.2885,-8.00981 -12.17733,1.46498 11.23678,-4.91613 -12.06813,-2.18943 12.18661,-1.38562 -10.88663,-5.6493 12.05361,2.268 -8.73781,-8.60721 10.8496,5.72011 -5.81259,-10.80034 8.68155,8.66396 -2.3709,-12.0338 5.7421,10.83798 1.28146,-12.19801 2.29245,12.04899 4.81995,-11.27837 -1.36089,12.1894 7.93017,-9.35659 -4.89333,11.24672 10.33576,-6.60344 -7.99095,9.30473 11.82297,-3.26356 -10.37856,6.53597 12.25966,0.36632 -11.84399,3.18646 11.60703,3.96364 -12.25701,-0.44617 9.92305,7.20877 -11.58096,-4.03917 z" />
  <path
     sodipodi:type="star"
     style="fill:#ffffff;fill-opacity:1;fill-rule:evenodd;stroke:#3f3d56;stroke-width:2.9"
     id="path5033-27"
     inkscape:flatsided="false"
     sodipodi:sides="21"
     sodipodi:cx="211.65767"
     sodipodi:cy="550.64423"
     sodipodi:r1="24"
     sodipodi:r2="12"
     sodipodi:arg1="0.78112656"
     sodipodi:arg2="0.93072621"
     inkscape:rounded="0"
     inkscape:randomized="0"
     inkscape:transform-center-x="0.21274886"
     inkscape:transform-center-y="-0.23957237"
     transform="matrix(0.92859308,0,0,0.92783797,1671.2479,-98.871604)"
     d="m 228.70057,567.54214 -9.87588,-7.27327 4.13796,11.54603 -7.29329,-9.86111 0.55088,12.25276 -4.06266,-11.57274 -3.08516,11.87077 -0.47104,-12.25608 -6.44707,10.43402 3.16243,-11.85042 -9.23612,8.07015 6.51491,-10.39179 -11.20451,4.98922 9.2885,-8.00981 -12.17733,1.46498 11.23678,-4.91613 -12.06813,-2.18943 12.18661,-1.38562 -10.88663,-5.6493 12.05361,2.268 -8.73781,-8.60721 10.8496,5.72011 -5.81259,-10.80034 8.68155,8.66396 -2.3709,-12.0338 5.7421,10.83798 1.28146,-12.19801 2.29245,12.04899 4.81995,-11.27837 -1.36089,12.1894 7.93017,-9.35659 -4.89333,11.24672 10.33576,-6.60344 -7.99095,9.30473 11.82297,-3.26356 -10.37856,6.53597 12.25966,0.36632 -11.84399,3.18646 11.60703,3.96364 -12.25701,-0.44617 9.92305,7.20877 -11.58096,-4.03917 z" />
  <path
     sodipodi:type="star"
     style="fill:#ffffff;fill-opacity:1;fill-rule:evenodd;stroke:#3f3d56;stroke-width:2.9"
     id="path5033-79"
     inkscape:flatsided="false"
     sodipodi:sides="21"
     sodipodi:cx="211.65767"
     sodipodi:cy="550.64423"
     sodipodi:r1="24"
     sodipodi:r2="12"
     sodipodi:arg1="0.78112656"
     sodipodi:arg2="0.93072621"
     inkscape:rounded="0"
     inkscape:randomized="0"
     inkscape:transform-center-x="0.21274886"
     inkscape:transform-center-y="-0.23957237"
     transform="matrix(0.92859308,0,0,0.92783797,1572.5312,-266.45145)"
     d="m 228.70057,567.54214 -9.87588,-7.27327 4.13796,11.54603 -7.29329,-9.86111 0.55088,12.25276 -4.06266,-11.57274 -3.08516,11.87077 -0.47104,-12.25608 -6.44707,10.43402 3.16243,-11.85042 -9.23612,8.07015 6.51491,-10.39179 -11.20451,4.98922 9.2885,-8.00981 -12.17733,1.46498 11.23678,-4.91613 -12.06813,-2.18943 12.18661,-1.38562 -10.88663,-5.6493 12.05361,2.268 -8.73781,-8.60721 10.8496,5.72011 -5.81259,-10.80034 8.68155,8.66396 -2.3709,-12.0338 5.7421,10.83798 1.28146,-12.19801 2.29245,12.04899 4.81995,-11.27837 -1.36089,12.1894 7.93017,-9.35659 -4.89333,11.24672 10.33576,-6.60344 -7.99095,9.30473 11.82297,-3.26356 -10.37856,6.53597 12.25966,0.36632 -11.84399,3.18646 11.60703,3.96364 -12.25701,-0.44617 9.92305,7.20877 -11.58096,-4.03917 z" />
  <path
     sodipodi:type="star"
     style="fill:#ffffff;fill-opacity:1;fill-rule:evenodd;stroke:#3f3d56;stroke-width:2.9"
     id="path5033-91"
     inkscape:flatsided="false"
     sodipodi:sides="21"
     sodipodi:cx="211.65767"
     sodipodi:cy="550.64423"
     sodipodi:r1="24"
     sodipodi:r2="12"
     sodipodi:arg1="0.78112656"
     sodipodi:arg2="0.93072621"
     inkscape:rounded="0"
     inkscape:randomized="0"
     inkscape:transform-center-x="0.21274886"
     inkscape:transform-center-y="-0.23957237"
     transform="matrix(0.92859308,0,0,0.92783797,1522.4291,-290.23765)"
     d="m 228.70057,567.54214 -9.87588,-7.27327 4.13796,11.54603 -7.29329,-9.86111 0.55088,12.25276 -4.06266,-11.57274 -3.08516,11.87077 -0.47104,-12.25608 -6.44707,10.43402 3.16243,-11.85042 -9.23612,8.07015 6.51491,-10.39179 -11.20451,4.98922 9.2885,-8.00981 -12.17733,1.46498 11.23678,-4.91613 -12.06813,-2.18943 12.18661,-1.38562 -10.88663,-5.6493 12.05361,2.268 -8.73781,-8.60721 10.8496,5.72011 -5.81259,-10.80034 8.68155,8.66396 -2.3709,-12.0338 5.7421,10.83798 1.28146,-12.19801 2.29245,12.04899 4.81995,-11.27837 -1.36089,12.1894 7.93017,-9.35659 -4.89333,11.24672 10.33576,-6.60344 -7.99095,9.30473 11.82297,-3.26356 -10.37856,6.53597 12.25966,0.36632 -11.84399,3.18646 11.60703,3.96364 -12.25701,-0.44617 9.92305,7.20877 -11.58096,-4.03917 z" />
  <path
     sodipodi:type="star"
     style="fill:#ffffff;fill-opacity:1;fill-rule:evenodd;stroke:#3f3d56;stroke-width:2.9"
     id="path5033-30"
     inkscape:flatsided="false"
     sodipodi:sides="21"
     sodipodi:cx="211.65767"
     sodipodi:cy="550.64423"
     sodipodi:r1="24"
     sodipodi:r2="12"
     sodipodi:arg1="0.78112656"
     sodipodi:arg2="0.93072621"
     inkscape:rounded="0"
     inkscape:randomized="0"
     inkscape:transform-center-x="0.21274886"
     inkscape:transform-center-y="-0.23957237"
     transform="matrix(0.92859308,0,0,0.92783797,1650.0179,-386.78354)"
     d="m 228.70057,567.54214 -9.87588,-7.27327 4.13796,11.54603 -7.29329,-9.86111 0.55088,12.25276 -4.06266,-11.57274 -3.08516,11.87077 -0.47104,-12.25608 -6.44707,10.43402 3.16243,-11.85042 -9.23612,8.07015 6.51491,-10.39179 -11.20451,4.98922 9.2885,-8.00981 -12.17733,1.46498 11.23678,-4.91613 -12.06813,-2.18943 12.18661,-1.38562 -10.88663,-5.6493 12.05361,2.268 -8.73781,-8.60721 10.8496,5.72011 -5.81259,-10.80034 8.68155,8.66396 -2.3709,-12.0338 5.7421,10.83798 1.28146,-12.19801 2.29245,12.04899 4.81995,-11.27837 -1.36089,12.1894 7.93017,-9.35659 -4.89333,11.24672 10.33576,-6.60344 -7.99095,9.30473 11.82297,-3.26356 -10.37856,6.53597 12.25966,0.36632 -11.84399,3.18646 11.60703,3.96364 -12.25701,-0.44617 9.92305,7.20877 -11.58096,-4.03917 z" />
  <path
     sodipodi:type="star"
     style="fill:#ffffff;fill-opacity:1;fill-rule:evenodd;stroke:#3f3d56;stroke-width:2.9"
     id="path5033-05"
     inkscape:flatsided="false"
     sodipodi:sides="21"
     sodipodi:cx="211.65767"
     sodipodi:cy="550.64423"
     sodipodi:r1="24"
     sodipodi:r2="12"
     sodipodi:arg1="0.78112656"
     sodipodi:arg2="0.93072621"
     inkscape:rounded="0"
     inkscape:randomized="0"
     inkscape:transform-center-x="0.21274886"
     inkscape:transform-center-y="-0.23957237"
     transform="matrix(0.92859308,0,0,0.92783797,1762.5884,214.74109)"
     d="m 228.70057,567.54214 -9.87588,-7.27327 4.13796,11.54603 -7.29329,-9.86111 0.55088,12.25276 -4.06266,-11.57274 -3.08516,11.87077 -0.47104,-12.25608 -6.44707,10.43402 3.16243,-11.85042 -9.23612,8.07015 6.51491,-10.39179 -11.20451,4.98922 9.2885,-8.00981 -12.17733,1.46498 11.23678,-4.91613 -12.06813,-2.18943 12.18661,-1.38562 -10.88663,-5.6493 12.05361,2.268 -8.73781,-8.60721 10.8496,5.72011 -5.81259,-10.80034 8.68155,8.66396 -2.3709,-12.0338 5.7421,10.83798 1.28146,-12.19801 2.29245,12.04899 4.81995,-11.27837 -1.36089,12.1894 7.93017,-9.35659 -4.89333,11.24672 10.33576,-6.60344 -7.99095,9.30473 11.82297,-3.26356 -10.37856,6.53597 12.25966,0.36632 -11.84399,3.18646 11.60703,3.96364 -12.25701,-0.44617 9.92305,7.20877 -11.58096,-4.03917 z" />
  <path
     sodipodi:type="star"
     style="fill:#ffffff;fill-opacity:1;fill-rule:evenodd;stroke:#3f3d56;stroke-width:2.9"
     id="path5033-37"
     inkscape:flatsided="false"
     sodipodi:sides="21"
     sodipodi:cx="211.65767"
     sodipodi:cy="550.64423"
     sodipodi:r1="24"
     sodipodi:r2="12"
     sodipodi:arg1="0.78112656"
     sodipodi:arg2="0.93072621"
     inkscape:rounded="0"
     inkscape:randomized="0"
     inkscape:transform-center-x="0.21274886"
     inkscape:transform-center-y="-0.23957237"
     transform="matrix(0.92859308,0,0,0.92783797,1164.4156,139.1287)"
     d="m 228.70057,567.54214 -9.87588,-7.27327 4.13796,11.54603 -7.29329,-9.86111 0.55088,12.25276 -4.06266,-11.57274 -3.08516,11.87077 -0.47104,-12.25608 -6.44707,10.43402 3.16243,-11.85042 -9.23612,8.07015 6.51491,-10.39179 -11.20451,4.98922 9.2885,-8.00981 -12.17733,1.46498 11.23678,-4.91613 -12.06813,-2.18943 12.18661,-1.38562 -10.88663,-5.6493 12.05361,2.268 -8.73781,-8.60721 10.8496,5.72011 -5.81259,-10.80034 8.68155,8.66396 -2.3709,-12.0338 5.7421,10.83798 1.28146,-12.19801 2.29245,12.04899 4.81995,-11.27837 -1.36089,12.1894 7.93017,-9.35659 -4.89333,11.24672 10.33576,-6.60344 -7.99095,9.30473 11.82297,-3.26356 -10.37856,6.53597 12.25966,0.36632 -11.84399,3.18646 11.60703,3.96364 -12.25701,-0.44617 9.92305,7.20877 -11.58096,-4.03917 z" />
  <path
     sodipodi:type="star"
     style="fill:#ffffff;fill-opacity:1;fill-rule:evenodd;stroke:#3f3d56;stroke-width:2.9"
     id="path5033-20"
     inkscape:flatsided="false"
     sodipodi:sides="21"
     sodipodi:cx="211.65767"
     sodipodi:cy="550.64423"
     sodipodi:r1="24"
     sodipodi:r2="12"
     sodipodi:arg1="0.78112656"
     sodipodi:arg2="0.93072621"
     inkscape:rounded="0"
     inkscape:randomized="0"
     inkscape:transform-center-x="0.21274886"
     inkscape:transform-center-y="-0.23957237"
     transform="matrix(0.92859308,0,0,0.92783797,1154.5724,247.14309)"
     d="m 228.70057,567.54214 -9.87588,-7.27327 4.13796,11.54603 -7.29329,-9.86111 0.55088,12.25276 -4.06266,-11.57274 -3.08516,11.87077 -0.47104,-12.25608 -6.44707,10.43402 3.16243,-11.85042 -9.23612,8.07015 6.51491,-10.39179 -11.20451,4.98922 9.2885,-8.00981 -12.17733,1.46498 11.23678,-4.91613 -12.06813,-2.18943 12.18661,-1.38562 -10.88663,-5.6493 12.05361,2.268 -8.73781,-8.60721 10.8496,5.72011 -5.81259,-10.80034 8.68155,8.66396 -2.3709,-12.0338 5.7421,10.83798 1.28146,-12.19801 2.29245,12.04899 4.81995,-11.27837 -1.36089,12.1894 7.93017,-9.35659 -4.89333,11.24672 10.33576,-6.60344 -7.99095,9.30473 11.82297,-3.26356 -10.37856,6.53597 12.25966,0.36632 -11.84399,3.18646 11.60703,3.96364 -12.25701,-0.44617 9.92305,7.20877 -11.58096,-4.03917 z" />
  <path
     sodipodi:type="star"
     style="fill:#ffffff;fill-opacity:1;fill-rule:evenodd;stroke:#3f3d56;stroke-width:2.9"
     id="path5033-76"
     inkscape:flatsided="false"
     sodipodi:sides="21"
     sodipodi:cx="211.65767"
     sodipodi:cy="550.64423"
     sodipodi:r1="24"
     sodipodi:r2="12"
     sodipodi:arg1="0.78112656"
     sodipodi:arg2="0.93072621"
     inkscape:rounded="0"
     inkscape:randomized="0"
     inkscape:transform-center-x="0.21274886"
     inkscape:transform-center-y="-0.23957237"
     transform="matrix(0.92859308,0,0,0.92783797,1278.3778,112.96328)"
     d="m 228.70057,567.54214 -9.87588,-7.27327 4.13796,11.54603 -7.29329,-9.86111 0.55088,12.25276 -4.06266,-11.57274 -3.08516,11.87077 -0.47104,-12.25608 -6.44707,10.43402 3.16243,-11.85042 -9.23612,8.07015 6.51491,-10.39179 -11.20451,4.98922 9.2885,-8.00981 -12.17733,1.46498 11.23678,-4.91613 -12.06813,-2.18943 12.18661,-1.38562 -10.88663,-5.6493 12.05361,2.268 -8.73781,-8.60721 10.8496,5.72011 -5.81259,-10.80034 8.68155,8.66396 -2.3709,-12.0338 5.7421,10.83798 1.28146,-12.19801 2.29245,12.04899 4.81995,-11.27837 -1.36089,12.1894 7.93017,-9.35659 -4.89333,11.24672 10.33576,-6.60344 -7.99095,9.30473 11.82297,-3.26356 -10.37856,6.53597 12.25966,0.36632 -11.84399,3.18646 11.60703,3.96364 -12.25701,-0.44617 9.92305,7.20877 -11.58096,-4.03917 z" />
  <path
     sodipodi:type="star"
     style="fill:#ffffff;fill-opacity:1;fill-rule:evenodd;stroke:#3f3d56;stroke-width:2.9"
     id="path5033-49"
     inkscape:flatsided="false"
     sodipodi:sides="21"
     sodipodi:cx="211.65767"
     sodipodi:cy="550.64423"
     sodipodi:r1="24"
     sodipodi:r2="12"
     sodipodi:arg1="0.78112656"
     sodipodi:arg2="0.93072621"
     inkscape:rounded="0"
     inkscape:randomized="0"
     inkscape:transform-center-x="0.21274886"
     inkscape:transform-center-y="-0.23957237"
     transform="matrix(0.92859308,0,0,0.92783797,1237.8786,-230.9783)"
     d="m 228.70057,567.54214 -9.87588,-7.27327 4.13796,11.54603 -7.29329,-9.86111 0.55088,12.25276 -4.06266,-11.57274 -3.08516,11.87077 -0.47104,-12.25608 -6.44707,10.43402 3.16243,-11.85042 -9.23612,8.07015 6.51491,-10.39179 -11.20451,4.98922 9.2885,-8.00981 -12.17733,1.46498 11.23678,-4.91613 -12.06813,-2.18943 12.18661,-1.38562 -10.88663,-5.6493 12.05361,2.268 -8.73781,-8.60721 10.8496,5.72011 -5.81259,-10.80034 8.68155,8.66396 -2.3709,-12.0338 5.7421,10.83798 1.28146,-12.19801 2.29245,12.04899 4.81995,-11.27837 -1.36089,12.1894 7.93017,-9.35659 -4.89333,11.24672 10.33576,-6.60344 -7.99095,9.30473 11.82297,-3.26356 -10.37856,6.53597 12.25966,0.36632 -11.84399,3.18646 11.60703,3.96364 -12.25701,-0.44617 9.92305,7.20877 -11.58096,-4.03917 z" />
  <path
     sodipodi:type="star"
     style="fill:#ffffff;fill-opacity:1;fill-rule:evenodd;stroke:#3f3d56;stroke-width:2.9"
     id="path5033-56"
     inkscape:flatsided="false"
     sodipodi:sides="21"
     sodipodi:cx="211.65767"
     sodipodi:cy="550.64423"
     sodipodi:r1="24"
     sodipodi:r2="12"
     sodipodi:arg1="0.78112656"
     sodipodi:arg2="0.93072621"
     inkscape:rounded="0"
     inkscape:randomized="0"
     inkscape:transform-center-x="0.21274886"
     inkscape:transform-center-y="-0.23957237"
     transform="matrix(0.92859308,0,0,0.92783797,1197.6668,-376.9201)"
     d="m 228.70057,567.54214 -9.87588,-7.27327 4.13796,11.54603 -7.29329,-9.86111 0.55088,12.25276 -4.06266,-11.57274 -3.08516,11.87077 -0.47104,-12.25608 -6.44707,10.43402 3.16243,-11.85042 -9.23612,8.07015 6.51491,-10.39179 -11.20451,4.98922 9.2885,-8.00981 -12.17733,1.46498 11.23678,-4.91613 -12.06813,-2.18943 12.18661,-1.38562 -10.88663,-5.6493 12.05361,2.268 -8.73781,-8.60721 10.8496,5.72011 -5.81259,-10.80034 8.68155,8.66396 -2.3709,-12.0338 5.7421,10.83798 1.28146,-12.19801 2.29245,12.04899 4.81995,-11.27837 -1.36089,12.1894 7.93017,-9.35659 -4.89333,11.24672 10.33576,-6.60344 -7.99095,9.30473 11.82297,-3.26356 -10.37856,6.53597 12.25966,0.36632 -11.84399,3.18646 11.60703,3.96364 -12.25701,-0.44617 9.92305,7.20877 -11.58096,-4.03917 z" />
  <path
     sodipodi:type="star"
     style="fill:#ffffff;fill-opacity:1;fill-rule:evenodd;stroke:#3f3d56;stroke-width:2.9"
     id="path5033-56-5"
     inkscape:flatsided="false"
     sodipodi:sides="21"
     sodipodi:cx="211.65767"
     sodipodi:cy="550.64423"
     sodipodi:r1="24"
     sodipodi:r2="12"
     sodipodi:arg1="0.78112656"
     sodipodi:arg2="0.93072621"
     inkscape:rounded="0"
     inkscape:randomized="0"
     inkscape:transform-center-x="0.21274886"
     inkscape:transform-center-y="-0.23957237"
     transform="matrix(0.92859308,0,0,0.92783797,1153.8409,-256.85638)"
     d="m 228.70057,567.54214 -9.87588,-7.27327 4.13796,11.54603 -7.29329,-9.86111 0.55088,12.25276 -4.06266,-11.57274 -3.08516,11.87077 -0.47104,-12.25608 -6.44707,10.43402 3.16243,-11.85042 -9.23612,8.07015 6.51491,-10.39179 -11.20451,4.98922 9.2885,-8.00981 -12.17733,1.46498 11.23678,-4.91613 -12.06813,-2.18943 12.18661,-1.38562 -10.88663,-5.6493 12.05361,2.268 -8.73781,-8.60721 10.8496,5.72011 -5.81259,-10.80034 8.68155,8.66396 -2.3709,-12.0338 5.7421,10.83798 1.28146,-12.19801 2.29245,12.04899 4.81995,-11.27837 -1.36089,12.1894 7.93017,-9.35659 -4.89333,11.24672 10.33576,-6.60344 -7.99095,9.30473 11.82297,-3.26356 -10.37856,6.53597 12.25966,0.36632 -11.84399,3.18646 11.60703,3.96364 -12.25701,-0.44617 9.92305,7.20877 -11.58096,-4.03917 z" />
  <path
     sodipodi:type="star"
     style="fill:#ffffff;fill-opacity:1;fill-rule:evenodd;stroke:#3f3d56;stroke-width:2.9"
     id="path5033-56-0"
     inkscape:flatsided="false"
     sodipodi:sides="21"
     sodipodi:cx="211.65767"
     sodipodi:cy="550.64423"
     sodipodi:r1="24"
     sodipodi:r2="12"
     sodipodi:arg1="0.78112656"
     sodipodi:arg2="0.93072621"
     inkscape:rounded="0"
     inkscape:randomized="0"
     inkscape:transform-center-x="0.21274886"
     inkscape:transform-center-y="-0.23957237"
     transform="matrix(0.92859308,0,0,0.92783797,488.27696,44.10981)"
     d="m 228.70057,567.54214 -9.87588,-7.27327 4.13796,11.54603 -7.29329,-9.86111 0.55088,12.25276 -4.06266,-11.57274 -3.08516,11.87077 -0.47104,-12.25608 -6.44707,10.43402 3.16243,-11.85042 -9.23612,8.07015 6.51491,-10.39179 -11.20451,4.98922 9.2885,-8.00981 -12.17733,1.46498 11.23678,-4.91613 -12.06813,-2.18943 12.18661,-1.38562 -10.88663,-5.6493 12.05361,2.268 -8.73781,-8.60721 10.8496,5.72011 -5.81259,-10.80034 8.68155,8.66396 -2.3709,-12.0338 5.7421,10.83798 1.28146,-12.19801 2.29245,12.04899 4.81995,-11.27837 -1.36089,12.1894 7.93017,-9.35659 -4.89333,11.24672 10.33576,-6.60344 -7.99095,9.30473 11.82297,-3.26356 -10.37856,6.53597 12.25966,0.36632 -11.84399,3.18646 11.60703,3.96364 -12.25701,-0.44617 9.92305,7.20877 -11.58096,-4.03917 z" />
  <path
     sodipodi:type="star"
     style="fill:#ffffff;fill-opacity:1;fill-rule:evenodd;stroke:#3f3d56;stroke-width:2.9"
     id="path5033-56-08"
     inkscape:flatsided="false"
     sodipodi:sides="21"
     sodipodi:cx="211.65767"
     sodipodi:cy="550.64423"
     sodipodi:r1="24"
     sodipodi:r2="12"
     sodipodi:arg1="0.78112656"
     sodipodi:arg2="0.93072621"
     inkscape:rounded="0"
     inkscape:randomized="0"
     inkscape:transform-center-x="0.21274886"
     inkscape:transform-center-y="-0.23957237"
     transform="matrix(0.92859308,0,0,0.92783797,638.49448,193.89197)"
     d="m 228.70057,567.54214 -9.87588,-7.27327 4.13796,11.54603 -7.29329,-9.86111 0.55088,12.25276 -4.06266,-11.57274 -3.08516,11.87077 -0.47104,-12.25608 -6.44707,10.43402 3.16243,-11.85042 -9.23612,8.07015 6.51491,-10.39179 -11.20451,4.98922 9.2885,-8.00981 -12.17733,1.46498 11.23678,-4.91613 -12.06813,-2.18943 12.18661,-1.38562 -10.88663,-5.6493 12.05361,2.268 -8.73781,-8.60721 10.8496,5.72011 -5.81259,-10.80034 8.68155,8.66396 -2.3709,-12.0338 5.7421,10.83798 1.28146,-12.19801 2.29245,12.04899 4.81995,-11.27837 -1.36089,12.1894 7.93017,-9.35659 -4.89333,11.24672 10.33576,-6.60344 -7.99095,9.30473 11.82297,-3.26356 -10.37856,6.53597 12.25966,0.36632 -11.84399,3.18646 11.60703,3.96364 -12.25701,-0.44617 9.92305,7.20877 -11.58096,-4.03917 z" />
  <path
     sodipodi:type="star"
     style="fill:#ffffff;fill-opacity:1;fill-rule:evenodd;stroke:#3f3d56;stroke-width:2.9"
     id="path5033-56-3"
     inkscape:flatsided="false"
     sodipodi:sides="21"
     sodipodi:cx="211.65767"
     sodipodi:cy="550.64423"
     sodipodi:r1="24"
     sodipodi:r2="12"
     sodipodi:arg1="0.78112656"
     sodipodi:arg2="0.93072621"
     inkscape:rounded="0"
     inkscape:randomized="0"
     inkscape:transform-center-x="0.21274886"
     inkscape:transform-center-y="-0.23957237"
     transform="matrix(0.92859308,0,0,0.92783797,494.06798,-99.89875)"
     d="m 228.70057,567.54214 -9.87588,-7.27327 4.13796,11.54603 -7.29329,-9.86111 0.55088,12.25276 -4.06266,-11.57274 -3.08516,11.87077 -0.47104,-12.25608 -6.44707,10.43402 3.16243,-11.85042 -9.23612,8.07015 6.51491,-10.39179 -11.20451,4.98922 9.2885,-8.00981 -12.17733,1.46498 11.23678,-4.91613 -12.06813,-2.18943 12.18661,-1.38562 -10.88663,-5.6493 12.05361,2.268 -8.73781,-8.60721 10.8496,5.72011 -5.81259,-10.80034 8.68155,8.66396 -2.3709,-12.0338 5.7421,10.83798 1.28146,-12.19801 2.29245,12.04899 4.81995,-11.27837 -1.36089,12.1894 7.93017,-9.35659 -4.89333,11.24672 10.33576,-6.60344 -7.99095,9.30473 11.82297,-3.26356 -10.37856,6.53597 12.25966,0.36632 -11.84399,3.18646 11.60703,3.96364 -12.25701,-0.44617 9.92305,7.20877 -11.58096,-4.03917 z" />
  <path
     sodipodi:type="star"
     style="fill:#ffffff;fill-opacity:1;fill-rule:evenodd;stroke:#3f3d56;stroke-width:2.9"
     id="path5033-56-4"
     inkscape:flatsided="false"
     sodipodi:sides="21"
     sodipodi:cx="211.65767"
     sodipodi:cy="550.64423"
     sodipodi:r1="24"
     sodipodi:r2="12"
     sodipodi:arg1="0.78112656"
     sodipodi:arg2="0.93072621"
     inkscape:rounded="0"
     inkscape:randomized="0"
     inkscape:transform-center-x="0.21274886"
     inkscape:transform-center-y="-0.23957237"
     transform="matrix(0.92859308,0,0,0.92783797,521.84446,-253.93922)"
     d="m 228.70057,567.54214 -9.87588,-7.27327 4.13796,11.54603 -7.29329,-9.86111 0.55088,12.25276 -4.06266,-11.57274 -3.08516,11.87077 -0.47104,-12.25608 -6.44707,10.43402 3.16243,-11.85042 -9.23612,8.07015 6.51491,-10.39179 -11.20451,4.98922 9.2885,-8.00981 -12.17733,1.46498 11.23678,-4.91613 -12.06813,-2.18943 12.18661,-1.38562 -10.88663,-5.6493 12.05361,2.268 -8.73781,-8.60721 10.8496,5.72011 -5.81259,-10.80034 8.68155,8.66396 -2.3709,-12.0338 5.7421,10.83798 1.28146,-12.19801 2.29245,12.04899 4.81995,-11.27837 -1.36089,12.1894 7.93017,-9.35659 -4.89333,11.24672 10.33576,-6.60344 -7.99095,9.30473 11.82297,-3.26356 -10.37856,6.53597 12.25966,0.36632 -11.84399,3.18646 11.60703,3.96364 -12.25701,-0.44617 9.92305,7.20877 -11.58096,-4.03917 z" />
  <path
     sodipodi:type="star"
     style="fill:#ffffff;fill-opacity:1;fill-rule:evenodd;stroke:#3f3d56;stroke-width:2.9"
     id="path5033-56-8"
     inkscape:flatsided="false"
     sodipodi:sides="21"
     sodipodi:cx="211.65767"
     sodipodi:cy="550.64423"
     sodipodi:r1="24"
     sodipodi:r2="12"
     sodipodi:arg1="0.78112656"
     sodipodi:arg2="0.93072621"
     inkscape:rounded="0"
     inkscape:randomized="0"
     inkscape:transform-center-x="0.21274886"
     inkscape:transform-center-y="-0.23957237"
     transform="matrix(0.92859308,0,0,0.92783797,615.58895,-430.07545)"
     d="m 228.70057,567.54214 -9.87588,-7.27327 4.13796,11.54603 -7.29329,-9.86111 0.55088,12.25276 -4.06266,-11.57274 -3.08516,11.87077 -0.47104,-12.25608 -6.44707,10.43402 3.16243,-11.85042 -9.23612,8.07015 6.51491,-10.39179 -11.20451,4.98922 9.2885,-8.00981 -12.17733,1.46498 11.23678,-4.91613 -12.06813,-2.18943 12.18661,-1.38562 -10.88663,-5.6493 12.05361,2.268 -8.73781,-8.60721 10.8496,5.72011 -5.81259,-10.80034 8.68155,8.66396 -2.3709,-12.0338 5.7421,10.83798 1.28146,-12.19801 2.29245,12.04899 4.81995,-11.27837 -1.36089,12.1894 7.93017,-9.35659 -4.89333,11.24672 10.33576,-6.60344 -7.99095,9.30473 11.82297,-3.26356 -10.37856,6.53597 12.25966,0.36632 -11.84399,3.18646 11.60703,3.96364 -12.25701,-0.44617 9.92305,7.20877 -11.58096,-4.03917 z" />
  <path
     sodipodi:type="star"
     style="fill:#ffffff;fill-opacity:1;fill-rule:evenodd;stroke:#3f3d56;stroke-width:2.9"
     id="path5033-56-49"
     inkscape:flatsided="false"
     sodipodi:sides="21"
     sodipodi:cx="211.65767"
     sodipodi:cy="550.64423"
     sodipodi:r1="24"
     sodipodi:r2="12"
     sodipodi:arg1="0.78112656"
     sodipodi:arg2="0.93072621"
     inkscape:rounded="0"
     inkscape:randomized="0"
     inkscape:transform-center-x="0.21274886"
     inkscape:transform-center-y="-0.23957237"
     transform="matrix(0.92859308,0,0,0.92783797,1244.2733,41.0127)"
     d="m 228.70057,567.54214 -9.87588,-7.27327 4.13796,11.54603 -7.29329,-9.86111 0.55088,12.25276 -4.06266,-11.57274 -3.08516,11.87077 -0.47104,-12.25608 -6.44707,10.43402 3.16243,-11.85042 -9.23612,8.07015 6.51491,-10.39179 -11.20451,4.98922 9.2885,-8.00981 -12.17733,1.46498 11.23678,-4.91613 -12.06813,-2.18943 12.18661,-1.38562 -10.88663,-5.6493 12.05361,2.268 -8.73781,-8.60721 10.8496,5.72011 -5.81259,-10.80034 8.68155,8.66396 -2.3709,-12.0338 5.7421,10.83798 1.28146,-12.19801 2.29245,12.04899 4.81995,-11.27837 -1.36089,12.1894 7.93017,-9.35659 -4.89333,11.24672 10.33576,-6.60344 -7.99095,9.30473 11.82297,-3.26356 -10.37856,6.53597 12.25966,0.36632 -11.84399,3.18646 11.60703,3.96364 -12.25701,-0.44617 9.92305,7.20877 -11.58096,-4.03917 z" />
  <path
     sodipodi:type="star"
     style="fill:#ffffff;fill-opacity:1;fill-rule:evenodd;stroke:#3f3d56;stroke-width:2.9"
     id="path5033-379"
     inkscape:flatsided="false"
     sodipodi:sides="21"
     sodipodi:cx="211.65767"
     sodipodi:cy="550.64423"
     sodipodi:r1="24"
     sodipodi:r2="12"
     sodipodi:arg1="0.78112656"
     sodipodi:arg2="0.93072621"
     inkscape:rounded="0"
     inkscape:randomized="0"
     inkscape:transform-center-x="0.21274886"
     inkscape:transform-center-y="-0.23957237"
     transform="matrix(0.92859308,0,0,0.92783797,1263.6348,-399.01586)"
     d="m 228.70057,567.54214 -9.87588,-7.27327 4.13796,11.54603 -7.29329,-9.86111 0.55088,12.25276 -4.06266,-11.57274 -3.08516,11.87077 -0.47104,-12.25608 -6.44707,10.43402 3.16243,-11.85042 -9.23612,8.07015 6.51491,-10.39179 -11.20451,4.98922 9.2885,-8.00981 -12.17733,1.46498 11.23678,-4.91613 -12.06813,-2.18943 12.18661,-1.38562 -10.88663,-5.6493 12.05361,2.268 -8.73781,-8.60721 10.8496,5.72011 -5.81259,-10.80034 8.68155,8.66396 -2.3709,-12.0338 5.7421,10.83798 1.28146,-12.19801 2.29245,12.04899 4.81995,-11.27837 -1.36089,12.1894 7.93017,-9.35659 -4.89333,11.24672 10.33576,-6.60344 -7.99095,9.30473 11.82297,-3.26356 -10.37856,6.53597 12.25966,0.36632 -11.84399,3.18646 11.60703,3.96364 -12.25701,-0.44617 9.92305,7.20877 -11.58096,-4.03917 z" />
</svg>
