<svg id="visual" viewBox="0 0 900 600" width="900" height="600" xmlns="http://www.w3.org/2000/svg" xmlns:xlink="http://www.w3.org/1999/xlink" version="1.1"><rect x="0" y="0" width="900" height="600" fill="#ffffff"></rect><g transform="translate(16.90453241973796 573.1446908525006)"><path d="M342.1 -291.1C487.5 -285.7 680 -219.8 698.4 -122.2C716.8 -24.6 561 104.7 462.1 258.2C363.2 411.6 321.2 589.2 247.2 567.8C173.2 546.4 67.4 326.1 -41.3 234.2C-150.1 142.3 -261.7 178.9 -397.2 136.3C-532.8 93.6 -692.3 -28.3 -726.5 -179.1C-760.7 -330 -669.6 -509.7 -527.6 -515.7C-385.7 -521.6 -192.8 -353.8 -47.2 -297.5C98.3 -241.2 196.7 -296.4 342.1 -291.1" fill="#3F3D56"></path></g></svg>