<svg id="visual" viewBox="0 0 540 960" width="540" height="960" xmlns="http://www.w3.org/2000/svg" xmlns:xlink="http://www.w3.org/1999/xlink" version="1.1"><rect x="0" y="0" width="540" height="960" fill="#ffffff"></rect><g transform="translate(304.33317460856574 429.41230525122387)"><path d="M118.5 -59.1C217.4 -91.2 405.4 -142 423.4 -127.9C441.3 -113.7 289.1 -34.6 262.9 97.6C236.8 229.9 336.6 415.3 313.8 467.7C291 520.1 145.5 439.6 63 352.8C-19.4 266 -38.8 173.1 -95.9 131.8C-152.9 90.5 -247.7 100.9 -331.2 57.2C-414.7 13.6 -486.9 -84.1 -493.1 -189.6C-499.2 -295.1 -439.2 -408.4 -346 -378.2C-252.7 -347.9 -126.4 -173.9 -58.3 -93.7C9.8 -13.5 19.6 -27 118.5 -59.1" fill="#3f3d56"></path></g></svg>