<svg id="visual" viewBox="0 0 1980 1024" width="1980" height="1024" xmlns="http://www.w3.org/2000/svg" xmlns:xlink="http://www.w3.org/1999/xlink" version="1.1"><rect x="0" y="0" width="1980" height="1024" fill="#ffffff"></rect><g transform="translate(944.8155650439786 604.9743945265207)"><path d="M283.7 -495.2C311.4 -475.4 238.9 -285.7 297.7 -174.9C356.5 -64 546.8 -32 623 44C699.2 120 661.4 240 556.8 271.6C452.2 303.2 280.8 246.4 176.9 237.4C73 228.4 36.5 267.2 -13 289.7C-62.5 312.3 -125 318.5 -182.6 300.8C-240.2 283 -292.9 241.3 -376.3 187.1C-459.7 133 -573.8 66.5 -572.8 0.6C-571.8 -65.3 -455.7 -130.7 -358.8 -161.6C-262 -192.4 -184.5 -188.9 -127.9 -192.1C-71.3 -195.2 -35.7 -205.1 46.2 -285.1C128 -365 256 -515.1 283.7 -495.2" fill="#3F3D56"></path></g></svg>