<svg id="visual" viewBox="0 0 540 960" width="540" height="960" xmlns="http://www.w3.org/2000/svg" xmlns:xlink="http://www.w3.org/1999/xlink" version="1.1"><rect x="0" y="0" width="540" height="960" fill="#ffffff"></rect><defs><linearGradient id="grad1_0" x1="0%" y1="100%" x2="100%" y2="0%"><stop offset="30%" stop-color="#ffffff" stop-opacity="1"></stop><stop offset="70%" stop-color="#ffffff" stop-opacity="1"></stop></linearGradient></defs><defs><linearGradient id="grad2_0" x1="0%" y1="100%" x2="100%" y2="0%"><stop offset="30%" stop-color="#ffffff" stop-opacity="1"></stop><stop offset="70%" stop-color="#ffffff" stop-opacity="1"></stop></linearGradient></defs><g transform="translate(540, 960)"><path d="M-378 0C-336.4 -47.4 -294.8 -94.8 -268.5 -155C-242.2 -215.2 -231.2 -288.1 -189 -327.4C-146.8 -366.6 -73.4 -372.3 0 -378L0 0Z" fill="#3f3d56"></path></g><g transform="translate(0, 0)"><path d="M378 0C343.8 51.7 309.5 103.4 282.3 163C255.1 222.6 234.9 290.2 189 327.4C143.1 364.5 71.6 371.3 0 378L0 0Z" fill="#3f3d56"></path></g></svg>