<svg id="visual" viewBox="0 0 900 900" width="900" height="900" xmlns="http://www.w3.org/2000/svg" xmlns:xlink="http://www.w3.org/1999/xlink" version="1.1"><rect x="0" y="0" width="900" height="900" fill="#ffffff"></rect><g transform="translate(457.3338877639868 464.4284962917643)"><path d="M343.1 -342.5C503.6 -355.6 733.3 -334.3 714.7 -262.6C696.2 -191 429.4 -69.1 310.4 40.1C191.3 149.3 220 245.8 192.9 260.8C165.8 275.8 82.9 209.4 -5.5 217C-93.8 224.5 -187.7 306 -292.3 316.2C-396.9 326.3 -512.3 265.1 -608.4 154.1C-704.4 43.1 -781.1 -117.8 -688.9 -168.9C-596.7 -220 -335.5 -161.2 -192.6 -153.7C-49.6 -146.3 -24.8 -190.1 33.3 -235.9C91.3 -281.7 182.6 -329.3 343.1 -342.5" fill="#3f3d56"></path></g></svg>