<svg id="visual" viewBox="0 0 900 600" width="900" height="600" xmlns="http://www.w3.org/2000/svg" xmlns:xlink="http://www.w3.org/1999/xlink" version="1.1"><rect x="0" y="0" width="900" height="600" fill="#ffffff"></rect><g transform="translate(459.61978907480136 260.052819678395)"><path d="M63.7 -64.9C103.2 -42.7 170.3 -42.3 229.2 2.4C288.1 47.1 338.9 136.1 307.1 164.2C275.2 192.3 160.7 159.6 80.2 164.7C-0.2 169.8 -46.6 212.7 -117.5 228C-188.5 243.4 -283.9 231.2 -319.3 179.6C-354.6 128.1 -330 37.1 -286.1 -22.5C-242.3 -82.1 -179.3 -110.4 -128.4 -130.6C-77.6 -150.8 -38.8 -162.9 -13.4 -147C12.1 -131 24.1 -87.1 63.7 -64.9" fill="#3F3D56"></path></g></svg>